<svg width="213" height="72" viewBox="0 0 213 72" fill="none" xmlns="http://www.w3.org/2000/svg">
<path d="M0.625 2.5625C2.625 2.875 4.4375 3.15625 6.0625 3.40625C7.6875 3.59375 9.09375 3.75 10.2812 3.875C11.6562 4.0625 12.875 4.21875 13.9375 4.34375C15.25 4.53125 17.2188 4.3125 19.8438 3.6875C22.4688 3 25.3438 2.375 28.4688 1.8125C31.6562 1.1875 34.9062 0.84375 38.2188 0.78125C41.5312 0.65625 44.5625 1.25 47.3125 2.5625C50.0625 3.875 52.3125 5.1875 54.0625 6.5C55.8125 7.8125 57.1875 9.21875 58.1875 10.7188C59.25 12.1562 60 13.6875 60.4375 15.3125C60.875 16.9375 61.125 18.7188 61.1875 20.6562C61.125 23.5312 60.4375 26.3125 59.125 29C58.5625 30.125 57.8125 31.3125 56.875 32.5625C56 33.75 54.9062 34.9062 53.5938 36.0312C52.2812 37.1562 50.7188 38.2188 48.9062 39.2188C47.1562 40.2188 45.0938 41.0938 42.7188 41.8438C45.0312 42.5312 46.9375 43.3438 48.4375 44.2812C50 45.2188 51.25 46.0938 52.1875 46.9062C53.3125 47.9062 54.1562 48.875 54.7188 49.8125C55.4062 51.125 55.875 52.25 56.125 53.1875C56.375 54.125 56.5312 55.0312 56.5938 55.9062C56.7188 56.7188 56.875 57.5625 57.0625 58.4375C57.25 59.3125 57.6562 60.3125 58.2812 61.4375C58.7812 62.3125 59.375 63.2188 60.0625 64.1562C60.6875 64.9688 61.4062 65.8438 62.2188 66.7812C63.0938 67.7188 64.1562 68.625 65.4062 69.5C63.6562 69.5625 62.0312 69.5938 60.5312 69.5938C59.0938 69.5938 57.8438 69.5938 56.7812 69.5938C55.5312 69.5938 54.3438 69.5625 53.2188 69.5C52.0938 69.4375 50.6875 69.4062 49 69.4062C47.5625 69.4062 45.7188 69.4062 43.4688 69.4062C41.2812 69.4062 38.625 69.4375 35.5 69.5C36.875 68.4375 38 67.375 38.875 66.3125C39.75 65.25 40.4375 64.2812 40.9375 63.4062C41.5 62.4062 41.9062 61.4375 42.1562 60.5C42.4688 58.8125 42.5 57.0625 42.25 55.25C42.0625 53.6875 41.5625 51.9688 40.75 50.0938C39.9375 48.1562 38.625 46.2188 36.8125 44.2812C35 44.5938 33.4688 44.8438 32.2188 45.0312C31.0312 45.1562 30 45.2812 29.125 45.4062C28.125 45.5312 27.3125 45.625 26.6875 45.6875C26.125 45.75 25.5 45.8125 24.8125 45.875C24.25 45.9375 23.625 46.0312 22.9375 46.1562C22.3125 46.2188 21.7188 46.3125 21.1562 46.4375C21.0312 49.125 21.0312 51.4688 21.1562 53.4688C21.2812 55.4062 21.4375 57.0312 21.625 58.3438C21.875 59.9062 22.1562 61.25 22.4688 62.375C22.7812 63.5 23.2188 64.5938 23.7812 65.6562C24.2188 66.5312 24.7812 67.4688 25.4688 68.4688C26.1562 69.4062 26.9375 70.1875 27.8125 70.8125C26.1875 70.8125 24.625 70.8125 23.125 70.8125C21.6875 70.8125 20.375 70.7812 19.1875 70.7188C17.8125 70.7188 16.5 70.6875 15.25 70.625C14 70.5625 12.5938 70.5312 11.0312 70.5312C9.71875 70.5312 8.15625 70.5312 6.34375 70.5312C4.59375 70.5312 2.6875 70.5625 0.625 70.625C2.25 68.9375 3.53125 67.5 4.46875 66.3125C5.40625 65.125 6.125 64.125 6.625 63.3125C7.1875 62.4375 7.53125 61.6875 7.65625 61.0625C7.78125 60.0625 7.875 58.2812 7.9375 55.7188C8.0625 53.0938 8.15625 50.0938 8.21875 46.7188C8.28125 43.3438 8.3125 39.8125 8.3125 36.125C8.3125 32.4375 8.28125 29 8.21875 25.8125C8.15625 22.5625 8.09375 19.7812 8.03125 17.4688C7.96875 15.1562 7.90625 13.6875 7.84375 13.0625C7.65625 11.9375 7.25 10.8125 6.625 9.6875C6.125 8.6875 5.40625 7.5625 4.46875 6.3125C3.53125 5.0625 2.25 3.8125 0.625 2.5625ZM36.0625 35.5625C36.6875 35.1875 37.2188 34.8125 37.6562 34.4375C38.0938 34.0625 38.4688 33.4688 38.7812 32.6562C39.0938 31.7812 39.3438 30.5625 39.5312 29C39.7812 27.4375 40.0625 25.3125 40.375 22.625C40.625 19.9375 40.4375 17.7188 39.8125 15.9688C39.25 14.2188 38.4688 12.8438 37.4688 11.8438C36.5312 10.7812 35.4688 10.0625 34.2812 9.6875C33.1562 9.25 32.1562 9.03125 31.2812 9.03125C29.5312 9.03125 27.8125 9.5625 26.125 10.625C24.4375 11.6875 23.1562 13.125 22.2812 14.9375C21.9688 15.75 21.6875 17.0938 21.4375 18.9688C21.25 20.5938 21.125 22.8438 21.0625 25.7188C21 28.5938 21.0938 32.375 21.3438 37.0625C23.7188 37.4375 25.8125 37.5938 27.625 37.5312C29.4375 37.4062 30.9688 37.1875 32.2188 36.875C33.7188 36.5625 35 36.125 36.0625 35.5625ZM71.9688 33.0312C72.2812 32.6562 72.4688 31.9688 72.5312 30.9688C72.6562 29.9062 72.9062 28.7188 73.2812 27.4062C73.7188 26.0938 74.4375 24.7188 75.4375 23.2812C76.4375 21.8438 78.0625 20.5 80.3125 19.25C82.5 18 84.625 17.25 86.6875 17C88.75 16.75 90.7188 16.8438 92.5938 17.2812C94.4688 17.7188 96.2188 18.4062 97.8438 19.3438C99.5312 20.2812 101.062 21.3125 102.438 22.4375C103.375 23.1875 104.125 24.2812 104.688 25.7188C105.25 27.0938 105.688 28.6562 106 30.4062C106.312 32.1562 106.531 34 106.656 35.9375C106.844 37.8125 106.969 39.6562 107.031 41.4688C107.094 43.2188 107.125 44.8438 107.125 46.3438C107.188 47.7812 107.312 48.9688 107.5 49.9062C107.75 51.2812 108.188 52.4688 108.812 53.4688C109.438 54.4062 110.125 55.2188 110.875 55.9062C111.625 56.5312 112.375 57.0312 113.125 57.4062C113.875 57.7812 114.531 58.0625 115.094 58.25C115.469 58.4375 115.812 58.5625 116.125 58.625C116.75 58.875 117.188 58.875 117.438 58.625C117.062 59.5 116.719 60.25 116.406 60.875C116.094 61.5 115.844 62.0312 115.656 62.4688C115.406 62.9688 115.188 63.375 115 63.6875C114.812 64.0625 114.594 64.4062 114.344 64.7188C114.156 65.0312 113.906 65.375 113.594 65.75C113.281 66.125 112.969 66.5312 112.656 66.9688C111.844 66.6562 111.062 66.2812 110.312 65.8438C109.625 65.4062 109 65 108.438 64.625C107.75 64.1875 107.125 63.75 106.562 63.3125C106 62.875 105.469 62.375 104.969 61.8125C104.531 61.3125 104.062 60.7812 103.562 60.2188C103.125 59.6562 102.75 59.0312 102.438 58.3438C102.062 59.1562 101.156 60.3125 99.7188 61.8125C98.3438 63.3125 96.5312 64.6875 94.2812 65.9375C92.0312 67.125 89.4062 67.9688 86.4062 68.4688C83.4688 68.9688 80.2188 68.625 76.6562 67.4375C75.0938 66.9375 73.625 66.2188 72.25 65.2812C70.875 64.2812 69.6875 63.0938 68.6875 61.7188C67.75 60.3438 67.0625 58.7812 66.625 57.0312C66.25 55.2188 66.2812 53.2188 66.7188 51.0312C67.1562 48.8438 67.9375 47 69.0625 45.5C70.1875 44 71.5312 42.7812 73.0938 41.8438C74.6562 40.9062 76.4062 40.1875 78.3438 39.6875C80.2812 39.1875 82.2812 38.8438 84.3438 38.6562C85.9688 38.5938 87.5938 38.6875 89.2188 38.9375C90.5938 39.1875 92.0312 39.6562 93.5312 40.3438C95.0312 40.9688 96.3125 41.9375 97.375 43.25C97.3125 39.9375 97.1875 37.3125 97 35.375C96.875 33.375 96.75 31.8438 96.625 30.7812C96.375 29.5312 96.1562 28.6562 95.9688 28.1562C95.6562 27.7188 95.3125 27.2188 94.9375 26.6562C94.625 26.0938 94.2188 25.5938 93.7188 25.1562C93.2188 24.6562 92.5938 24.25 91.8438 23.9375C91.0938 23.625 90.2188 23.5 89.2188 23.5625C88.1562 23.625 87.3125 23.9062 86.6875 24.4062C86.0625 24.9062 85.5625 25.5 85.1875 26.1875C84.875 26.8125 84.6875 27.5 84.625 28.25C84.5625 29 84.5938 29.6562 84.7188 30.2188C84.8438 30.5938 85.0312 31 85.2812 31.4375C85.5312 31.8125 85.875 32.2188 86.3125 32.6562C86.75 33.0938 87.3438 33.4688 88.0938 33.7812C86.6562 33.9688 85.375 34.125 84.25 34.25C83.125 34.3125 82.1562 34.4062 81.3438 34.5312C80.4062 34.6562 79.5938 34.75 78.9062 34.8125C78.2188 34.875 77.4062 35 76.4688 35.1875C75.6562 35.3125 74.6562 35.4688 73.4688 35.6562C72.2812 35.8438 70.9062 36.0938 69.3438 36.4062C69.7188 35.9688 70.0625 35.5625 70.375 35.1875C70.6875 34.75 70.9688 34.375 71.2188 34.0625C71.4688 33.6875 71.7188 33.3438 71.9688 33.0312ZM86.0312 44.1875C84.9062 44.25 83.7812 44.5312 82.6562 45.0312C81.5312 45.4688 80.5312 46.125 79.6562 47C78.7812 47.8125 78.0312 48.7812 77.4062 49.9062C76.8438 50.9688 76.5625 52.1562 76.5625 53.4688C76.5625 54.7812 76.875 55.9375 77.5 56.9375C78.1875 57.875 79.0625 58.6562 80.125 59.2812C81.25 59.9062 82.4375 60.2812 83.6875 60.4062C85 60.5312 86.2812 60.4062 87.5312 60.0312C88.7188 59.5938 89.8438 58.9062 90.9062 57.9688C91.9688 56.9688 92.875 55.9062 93.625 54.7812C94.375 53.5938 94.9062 52.4375 95.2188 51.3125C95.5312 50.125 95.5625 49.1562 95.3125 48.4062C94.8125 46.7812 93.6875 45.6562 91.9375 45.0312C90.1875 44.3438 88.2188 44.0625 86.0312 44.1875ZM111.719 3.875C114.094 4.4375 116.219 4.875 118.094 5.1875C120.031 5.4375 121.656 5.625 122.969 5.75C124.531 5.9375 125.906 6 127.094 5.9375C128.594 5.875 130.469 5.65625 132.719 5.28125C134.969 4.90625 137.344 4.53125 139.844 4.15625C142.344 3.78125 144.812 3.46875 147.25 3.21875C149.688 2.96875 151.812 2.9375 153.625 3.125C155.438 3.3125 157.344 3.75 159.344 4.4375C161.344 5.0625 163.219 5.9375 164.969 7.0625C166.719 8.125 168.219 9.4375 169.469 11C170.781 12.5625 171.594 14.375 171.906 16.4375C172.219 18.4375 172.031 20.5938 171.344 22.9062C170.656 25.1562 169.562 27.375 168.062 29.5625C166.562 31.6875 164.688 33.6562 162.438 35.4688C160.188 37.2812 157.688 38.75 154.938 39.875C152.75 40.6875 150.375 41.3125 147.812 41.75C145.625 42.125 143.062 42.375 140.125 42.5C137.25 42.5625 134.188 42.25 130.938 41.5625C130.5 43.375 130.25 45.0625 130.188 46.625C130.188 48.125 130.25 49.4688 130.375 50.6562C130.562 52.0312 130.812 53.2812 131.125 54.4062C131.5 55.5312 131.969 56.8438 132.531 58.3438C133.031 59.5938 133.594 61.125 134.219 62.9375C134.906 64.6875 135.719 66.6562 136.656 68.8438C135.531 68.8438 134.438 68.875 133.375 68.9375C132.312 68.9375 131.344 68.9688 130.469 69.0312C129.469 69.0938 128.531 69.1562 127.656 69.2188C126.656 69.2812 125.531 69.4062 124.281 69.5938C123.219 69.7188 121.875 69.9062 120.25 70.1562C118.688 70.4062 116.906 70.7188 114.906 71.0938C116.219 69.2188 117.25 67.5 118 65.9375C118.812 64.3125 119.406 62.9062 119.781 61.7188C120.219 60.3438 120.5 59.0938 120.625 57.9688C120.688 57.0312 120.688 55.375 120.625 53C120.625 50.625 120.594 47.875 120.531 44.75C120.469 41.625 120.375 38.3438 120.25 34.9062C120.125 31.4688 119.969 28.25 119.781 25.25C119.594 22.1875 119.375 19.5625 119.125 17.375C118.938 15.1875 118.75 13.75 118.562 13.0625C118.312 12.25 117.875 11.375 117.25 10.4375C116.75 9.625 116.031 8.6875 115.094 7.625C114.219 6.5 113.094 5.25 111.719 3.875ZM131.125 22.3438C131.062 22.9688 131.031 23.625 131.031 24.3125C131.031 25.625 131.125 27.3125 131.312 29.375C131.75 30.4375 132.281 31.3125 132.906 32C133.594 32.6875 134.312 33.2188 135.062 33.5938C135.875 33.9688 136.688 34.2188 137.5 34.3438C138.312 34.4688 139.125 34.5312 139.938 34.5312C141.812 34.4688 143.781 34.0312 145.844 33.2188C148.594 32.0312 150.531 30.3438 151.656 28.1562C152.781 25.9688 153.375 23.7188 153.438 21.4062C153.5 19.0938 153.094 16.9688 152.219 15.0312C151.406 13.0938 150.406 11.7812 149.219 11.0938C148.219 10.6563 146.938 10.4688 145.375 10.5312C144 10.5937 142.281 10.9375 140.219 11.5625C138.156 12.1875 135.625 13.3125 132.625 14.9375C132.312 16.0625 132.062 17.0625 131.875 17.9375C131.688 18.8125 131.531 19.5938 131.406 20.2812C131.281 21.0312 131.188 21.7188 131.125 22.3438ZM190.844 29C192.469 29 194.156 29.3125 195.906 29.9375C197.656 30.5 199.344 31.25 200.969 32.1875C202.594 33.0625 204.062 34.0312 205.375 35.0938C206.75 36.0938 207.875 37.0625 208.75 38C210.312 39.6875 211.375 41.9688 211.938 44.8438C212.562 47.6562 212.688 50.5625 212.312 53.5625C211.938 56.5 211.062 59.2812 209.688 61.9062C208.312 64.5312 206.406 66.4688 203.969 67.7188C202.219 68.5938 200.5 69.2812 198.812 69.7812C197.125 70.2812 195.5 70.6562 193.938 70.9062C192.375 71.1562 190.906 71.2812 189.531 71.2812C188.156 71.2812 186.969 71.25 185.969 71.1875C184.094 71.0625 182.125 70.4062 180.062 69.2188C178.062 68.0312 176.156 66.5625 174.344 64.8125C172.594 63.0625 171.094 61.1562 169.844 59.0938C168.594 56.9688 167.844 54.9688 167.594 53.0938C167.219 50.5312 167.156 47.8438 167.406 45.0312C167.656 42.2188 168.562 39.625 170.125 37.25C171.75 34.875 174.188 32.9062 177.438 31.3438C180.75 29.7812 185.219 29 190.844 29ZM187.75 65.375C188.438 65.5 189.375 65.3438 190.562 64.9062C191.75 64.4062 192.906 63.625 194.031 62.5625C195.219 61.5 196.25 60.1562 197.125 58.5312C198.062 56.8438 198.625 54.8125 198.812 52.4375C199 50.125 199 48 198.812 46.0625C198.688 44.125 198.406 42.4375 197.969 41C197.531 39.5 197.031 38.2812 196.469 37.3438C195.906 36.4062 195.312 35.75 194.688 35.375C193.625 34.8125 192.344 34.375 190.844 34.0625C189.344 33.6875 188.062 33.75 187 34.25C186.5 34.5 185.875 35.0312 185.125 35.8438C184.375 36.6562 183.625 37.6875 182.875 38.9375C182.125 40.125 181.438 41.5 180.812 43.0625C180.25 44.625 179.844 46.25 179.594 47.9375C179.344 49.625 179.281 51.4375 179.406 53.375C179.594 55.3125 180 57.1562 180.625 58.9062C181.25 60.5938 182.125 62.0625 183.25 63.3125C184.438 64.5 185.938 65.1875 187.75 65.375Z" fill="black"/>
</svg>
